<svg width="44" height="43" viewBox="0 0 44 43" fill="none" xmlns="http://www.w3.org/2000/svg">
<path d="M20.6531 0H3.59184C3.09796 0 2.69388 0.403125 2.69388 0.895833V17.9167C2.69388 18.4094 3.09796 18.8125 3.59184 18.8125H20.6531C21.1469 18.8125 21.551 18.4094 21.551 17.9167V0.895833C21.551 0.403125 21.1469 0 20.6531 0ZM17.7347 15.0052H6.5102V3.80729H17.7347V15.0052ZM43.102 0H26.0408C25.5469 0 25.1429 0.403125 25.1429 0.895833V17.9167C25.1429 18.4094 25.5469 18.8125 26.0408 18.8125H43.102C43.5959 18.8125 44 18.4094 44 17.9167V0.895833C44 0.403125 43.5959 0 43.102 0ZM40.1837 15.0052H28.9592V3.80729H40.1837V15.0052ZM43.102 22.3958H26.0408C25.5469 22.3958 25.1429 22.799 25.1429 23.2917V40.3125C25.1429 40.8052 25.5469 41.2083 26.0408 41.2083H43.102C43.5959 41.2083 44 40.8052 44 40.3125V23.2917C44 22.799 43.5959 22.3958 43.102 22.3958ZM40.1837 37.401H28.9592V26.2031H40.1837V37.401ZM18.4082 31.8021H11.2245V24.6354C11.2245 24.3891 11.0224 24.1875 10.7755 24.1875H8.08163C7.83469 24.1875 7.63265 24.3891 7.63265 24.6354V31.8021H0.44898C0.202041 31.8021 0 32.0036 0 32.25V34.9375C0 35.1839 0.202041 35.3854 0.44898 35.3854H7.63265V42.5521C7.63265 42.7984 7.83469 43 8.08163 43H10.7755C11.0224 43 11.2245 42.7984 11.2245 42.5521V35.3854H18.4082C18.6551 35.3854 18.8571 35.1839 18.8571 34.9375V32.25C18.8571 32.0036 18.6551 31.8021 18.4082 31.8021Z" fill="white"/>
</svg>
