<svg width="65" height="65" viewBox="0 0 65 65" fill="none" xmlns="http://www.w3.org/2000/svg">
<path d="M29.4531 9.14062H10.1562C9.59766 9.14062 9.14062 9.59766 9.14062 10.1562V29.4531C9.14062 30.0117 9.59766 30.4688 10.1562 30.4688H29.4531C30.0117 30.4688 30.4688 30.0117 30.4688 29.4531V10.1562C30.4688 9.59766 30.0117 9.14062 29.4531 9.14062ZM26.1523 26.1523H13.457V13.457H26.1523V26.1523ZM54.8438 9.14062H35.5469C34.9883 9.14062 34.5312 9.59766 34.5312 10.1562V29.4531C34.5312 30.0117 34.9883 30.4688 35.5469 30.4688H54.8438C55.4023 30.4688 55.8594 30.0117 55.8594 29.4531V10.1562C55.8594 9.59766 55.4023 9.14062 54.8438 9.14062ZM51.543 26.1523H38.8477V13.457H51.543V26.1523ZM54.8438 34.5312H35.5469C34.9883 34.5312 34.5312 34.9883 34.5312 35.5469V54.8438C34.5312 55.4023 34.9883 55.8594 35.5469 55.8594H54.8438C55.4023 55.8594 55.8594 55.4023 55.8594 54.8438V35.5469C55.8594 34.9883 55.4023 34.5312 54.8438 34.5312ZM51.543 51.543H38.8477V38.8477H51.543V51.543ZM26.9141 45.1953H18.7891V37.0703C18.7891 36.791 18.5605 36.5625 18.2812 36.5625H15.2344C14.9551 36.5625 14.7266 36.791 14.7266 37.0703V45.1953H6.60156C6.32227 45.1953 6.09375 45.4238 6.09375 45.7031V48.75C6.09375 49.0293 6.32227 49.2578 6.60156 49.2578H14.7266V57.3828C14.7266 57.6621 14.9551 57.8906 15.2344 57.8906H18.2812C18.5605 57.8906 18.7891 57.6621 18.7891 57.3828V49.2578H26.9141C27.1934 49.2578 27.4219 49.0293 27.4219 48.75V45.7031C27.4219 45.4238 27.1934 45.1953 26.9141 45.1953Z" fill="#3D3D3D"/>
</svg>
