<svg width="45" height="60" viewBox="0 0 45 60" fill="none" xmlns="http://www.w3.org/2000/svg">
<path d="M19.8098 21.6598C20.1572 21.3124 20.3523 20.8413 20.3523 20.35C20.3523 19.8587 20.1572 19.3876 19.8098 19.0402C19.4624 18.6928 18.9913 18.4977 18.5 18.4977C18.0087 18.4977 17.5376 18.6928 17.1902 19.0402L11.9658 24.2646L10.4969 22.9252C10.1319 22.6132 9.65997 22.4554 9.18077 22.485C8.70156 22.5146 8.25263 22.7294 7.92886 23.0839C7.60508 23.4384 7.43181 23.905 7.44566 24.3849C7.45952 24.8648 7.65941 25.3205 8.0031 25.6558L10.7781 28.1903C11.1297 28.5104 11.5911 28.6829 12.0665 28.6718C12.5418 28.6608 12.9947 28.4672 13.3311 28.1311L19.8061 21.6561L19.8098 21.6598ZM19.8098 37.5402C19.9821 37.712 20.1188 37.9162 20.212 38.141C20.3053 38.3657 20.3533 38.6067 20.3533 38.85C20.3533 39.0933 20.3053 39.3343 20.212 39.559C20.1188 39.7838 19.9821 39.988 19.8098 40.1598L13.3348 46.6348C12.9978 46.9714 12.5438 47.1651 12.0676 47.1754C11.5913 47.1858 11.1294 47.012 10.7781 46.6903L8.0031 44.1558C7.65941 43.8205 7.45952 43.3648 7.44566 42.8849C7.43181 42.405 7.60508 41.9384 7.92886 41.5839C8.25263 41.2294 8.70156 41.0146 9.18077 40.985C9.65997 40.9554 10.1319 41.1132 10.4969 41.4252L11.9658 42.7683L17.1902 37.5402C17.362 37.3679 17.5662 37.2312 17.791 37.138C18.0157 37.0447 18.2567 36.9967 18.5 36.9967C18.7433 36.9967 18.9843 37.0447 19.209 37.138C19.4338 37.2312 19.638 37.3679 19.8098 37.5402ZM25.9 40.7C25.4093 40.7 24.9388 40.8949 24.5919 41.2419C24.2449 41.5888 24.05 42.0593 24.05 42.55C24.05 43.0406 24.2449 43.5112 24.5919 43.8582C24.9388 44.2051 25.4093 44.4 25.9 44.4H35.15C35.6407 44.4 36.1112 44.2051 36.4581 43.8582C36.8051 43.5112 37 43.0406 37 42.55C37 42.0593 36.8051 41.5888 36.4581 41.2419C36.1112 40.8949 35.6407 40.7 35.15 40.7H25.9ZM24.05 24.05C24.05 23.5593 24.2449 23.0888 24.5919 22.7419C24.9388 22.3949 25.4093 22.2 25.9 22.2H35.15C35.6407 22.2 36.1112 22.3949 36.4581 22.7419C36.8051 23.0888 37 23.5593 37 24.05C37 24.5407 36.8051 25.0112 36.4581 25.3581C36.1112 25.7051 35.6407 25.9 35.15 25.9H25.9C25.4093 25.9 24.9388 25.7051 24.5919 25.3581C24.2449 25.0112 24.05 24.5407 24.05 24.05ZM16.65 7.63076e-07C15.5018 -0.000601176 14.3817 0.354933 13.444 1.0176C12.5063 1.68028 11.7972 2.61746 11.4145 3.7H5.55C4.07805 3.7 2.66638 4.28473 1.62556 5.32556C0.58473 6.36639 0 7.77805 0 9.25V53.65C0 55.122 0.58473 56.5336 1.62556 57.5744C2.66638 58.6153 4.07805 59.2 5.55 59.2H38.85C40.322 59.2 41.7336 58.6153 42.7744 57.5744C43.8153 56.5336 44.4 55.122 44.4 53.65V9.25C44.4 7.77805 43.8153 6.36639 42.7744 5.32556C41.7336 4.28473 40.322 3.7 38.85 3.7H32.9855C32.6028 2.61746 31.8937 1.68028 30.956 1.0176C30.0183 0.354933 28.8982 -0.000601176 27.75 7.63076e-07H16.65ZM14.8 5.55C14.8 5.05935 14.9949 4.5888 15.3419 4.24185C15.6888 3.89491 16.1593 3.7 16.65 3.7H27.75C28.2407 3.7 28.7112 3.89491 29.0581 4.24185C29.4051 4.5888 29.6 5.05935 29.6 5.55C29.6 6.04065 29.4051 6.51121 29.0581 6.85815C28.7112 7.20509 28.2407 7.4 27.75 7.4H16.65C16.1593 7.4 15.6888 7.20509 15.3419 6.85815C14.9949 6.51121 14.8 6.04065 14.8 5.55ZM5.55 7.4H11.4145C11.7972 8.48254 12.5063 9.41973 13.444 10.0824C14.3817 10.7451 15.5018 11.1006 16.65 11.1H27.75C28.8982 11.1006 30.0183 10.7451 30.956 10.0824C31.8937 9.41973 32.6028 8.48254 32.9855 7.4H38.85C39.3407 7.4 39.8112 7.59491 40.1581 7.94185C40.5051 8.2888 40.7 8.75935 40.7 9.25V53.65C40.7 54.1407 40.5051 54.6112 40.1581 54.9581C39.8112 55.3051 39.3407 55.5 38.85 55.5H5.55C5.05935 55.5 4.5888 55.3051 4.24185 54.9581C3.89491 54.6112 3.7 54.1407 3.7 53.65V9.25C3.7 8.75935 3.89491 8.2888 4.24185 7.94185C4.5888 7.59491 5.05935 7.4 5.55 7.4Z" fill="white"/>
</svg>
