<svg width="74" height="74" viewBox="0 0 74 74" fill="none" xmlns="http://www.w3.org/2000/svg">
<path d="M34.6098 29.0598C34.9572 28.7124 35.1523 28.2413 35.1523 27.75C35.1523 27.2588 34.9572 26.7876 34.6098 26.4402C34.2624 26.0928 33.7913 25.8977 33.3 25.8977C32.8087 25.8977 32.3376 26.0928 31.9902 26.4402L26.7658 31.6646L25.2969 30.3252C24.9319 30.0133 24.46 29.8554 23.9808 29.885C23.5015 29.9147 23.0526 30.1294 22.7288 30.484C22.4051 30.8385 22.2318 31.305 22.2457 31.7849C22.2595 32.2648 22.4594 32.7206 22.8031 33.0558L25.5781 35.5903C25.9297 35.9104 26.3911 36.0829 26.8664 36.0719C27.3418 36.0608 27.7947 35.8672 28.1311 35.5311L34.6061 29.0561L34.6098 29.0598ZM34.6098 44.9402C34.7821 45.1121 34.9188 45.3162 35.012 45.541C35.1053 45.7657 35.1533 46.0067 35.1533 46.25C35.1533 46.4934 35.1053 46.7343 35.012 46.9591C34.9188 47.1838 34.7821 47.388 34.6098 47.5598L28.1348 54.0348C27.7977 54.3715 27.3438 54.5651 26.8676 54.5755C26.3913 54.5858 25.9294 54.412 25.5781 54.0903L22.8031 51.5558C22.4594 51.2206 22.2595 50.7648 22.2457 50.2849C22.2318 49.805 22.4051 49.3385 22.7288 48.984C23.0526 48.6294 23.5015 48.4147 23.9808 48.385C24.46 48.3554 24.9319 48.5133 25.2969 48.8252L26.7658 50.1683L31.9902 44.9402C32.162 44.7679 32.3662 44.6313 32.5909 44.538C32.8157 44.4447 33.0566 44.3967 33.3 44.3967C33.5433 44.3967 33.7843 44.4447 34.009 44.538C34.2338 44.6313 34.4379 44.7679 34.6098 44.9402V44.9402ZM40.7 48.1C40.2093 48.1 39.7388 48.2949 39.3918 48.6419C39.0449 48.9888 38.85 49.4594 38.85 49.95C38.85 50.4407 39.0449 50.9112 39.3918 51.2582C39.7388 51.6051 40.2093 51.8 40.7 51.8H49.95C50.4406 51.8 50.9112 51.6051 51.2581 51.2582C51.6051 50.9112 51.8 50.4407 51.8 49.95C51.8 49.4594 51.6051 48.9888 51.2581 48.6419C50.9112 48.2949 50.4406 48.1 49.95 48.1H40.7ZM38.85 31.45C38.85 30.9594 39.0449 30.4888 39.3918 30.1419C39.7388 29.7949 40.2093 29.6 40.7 29.6H49.95C50.4406 29.6 50.9112 29.7949 51.2581 30.1419C51.6051 30.4888 51.8 30.9594 51.8 31.45C51.8 31.9407 51.6051 32.4112 51.2581 32.7582C50.9112 33.1051 50.4406 33.3 49.95 33.3H40.7C40.2093 33.3 39.7388 33.1051 39.3918 32.7582C39.0449 32.4112 38.85 31.9407 38.85 31.45ZM31.45 7.40003C30.3018 7.39942 29.1817 7.75496 28.244 8.41763C27.3063 9.0803 26.5972 10.0175 26.2145 11.1H20.35C18.878 11.1 17.4664 11.6848 16.4255 12.7256C15.3847 13.7664 14.8 15.1781 14.8 16.65V61.05C14.8 62.522 15.3847 63.9336 16.4255 64.9745C17.4664 66.0153 18.878 66.6 20.35 66.6H53.65C55.1219 66.6 56.5336 66.0153 57.5744 64.9745C58.6153 63.9336 59.2 62.522 59.2 61.05V16.65C59.2 15.1781 58.6153 13.7664 57.5744 12.7256C56.5336 11.6848 55.1219 11.1 53.65 11.1H47.7855C47.4028 10.0175 46.6937 9.0803 45.756 8.41763C44.8183 7.75496 43.6982 7.39942 42.55 7.40003H31.45ZM29.6 12.95C29.6 12.4594 29.7949 11.9888 30.1418 11.6419C30.4888 11.2949 30.9593 11.1 31.45 11.1H42.55C43.0406 11.1 43.5112 11.2949 43.8581 11.6419C44.2051 11.9888 44.4 12.4594 44.4 12.95C44.4 13.4407 44.2051 13.9112 43.8581 14.2582C43.5112 14.6051 43.0406 14.8 42.55 14.8H31.45C30.9593 14.8 30.4888 14.6051 30.1418 14.2582C29.7949 13.9112 29.6 13.4407 29.6 12.95ZM20.35 14.8H26.2145C26.5972 15.8826 27.3063 16.8197 28.244 17.4824C29.1817 18.1451 30.3018 18.5006 31.45 18.5H42.55C43.6982 18.5006 44.8183 18.1451 45.756 17.4824C46.6937 16.8197 47.4028 15.8826 47.7855 14.8H53.65C54.1406 14.8 54.6112 14.9949 54.9581 15.3419C55.3051 15.6888 55.5 16.1594 55.5 16.65V61.05C55.5 61.5407 55.3051 62.0112 54.9581 62.3582C54.6112 62.7051 54.1406 62.9 53.65 62.9H20.35C19.8593 62.9 19.3888 62.7051 19.0418 62.3582C18.6949 62.0112 18.5 61.5407 18.5 61.05V16.65C18.5 16.1594 18.6949 15.6888 19.0418 15.3419C19.3888 14.9949 19.8593 14.8 20.35 14.8V14.8Z" fill="black"/>
</svg>
