<svg width="38" height="40" viewBox="0 0 38 40" fill="none" xmlns="http://www.w3.org/2000/svg">
<path d="M7.91666 36.6666C7.49674 36.6666 7.09401 36.4911 6.79708 36.1785C6.50014 35.8659 6.33333 35.442 6.33333 35V4.99998C6.33333 4.55795 6.50014 4.13403 6.79708 3.82147C7.09401 3.50891 7.49674 3.33331 7.91666 3.33331H30.0833C30.5033 3.33331 30.906 3.50891 31.2029 3.82147C31.4998 4.13403 31.6667 4.55795 31.6667 4.99998V9.99998H28.5V6.66665H9.49999V33.3333H28.5V30H31.6667V35C31.6667 35.442 31.4998 35.8659 31.2029 36.1785C30.906 36.4911 30.5033 36.6666 30.0833 36.6666H7.91666ZM28.5 26.6666V21.6666H17.4167V18.3333H28.5V13.3333L36.4167 20L28.5 26.6666Z" fill="white"/>
</svg>
